<?xml version="1.0" standalone="no"?>
<!DOCTYPE svg PUBLIC "-//W3C//DTD SVG 20010904//EN"
 "http://www.w3.org/TR/2001/REC-SVG-20010904/DTD/svg10.dtd">
<svg version="1.0" xmlns="http://www.w3.org/2000/svg"
 width="400.000000pt" height="400.000000pt" viewBox="0 0 400.000000 400.000000"
 preserveAspectRatio="xMidYMid meet">
<metadata>
Created by potrace 1.11, written by Peter Selinger 2001-2013
</metadata>
<g transform="translate(0.000000,400.000000) scale(0.100000,-0.100000)"
fill="#000000" stroke="none">
<path d="M0 2000 l0 -2000 2000 0 2000 0 0 2000 0 2000 -2000 0 -2000 0 0
-2000z m3298 981 c132 -53 201 -165 227 -366 l6 -51 -93 -22 c-51 -12 -98 -22
-104 -22 -6 0 -14 26 -17 58 -20 181 -100 271 -222 248 -45 -9 -103 -60 -126
-111 -36 -82 -40 -179 -37 -780 3 -521 6 -585 21 -633 68 -202 295 -204 357
-4 11 36 23 96 27 134 l6 70 76 -6 c128 -12 124 -9 116 -75 -9 -81 -43 -208
-67 -255 -33 -64 -58 -94 -112 -131 -73 -49 -150 -68 -255 -63 -197 10 -318
121 -369 340 -15 65 -17 142 -17 678 0 536 2 613 17 678 42 180 124 279 273
329 61 20 226 11 293 -16z m-2407 -25 c223 -48 319 -199 319 -499 -1 -219 -58
-350 -182 -411 -41 -21 -47 -27 -32 -32 91 -33 138 -65 179 -124 51 -73 67
-141 72 -300 10 -291 -53 -450 -211 -532 -71 -36 -159 -48 -373 -48 l-203 0 0
980 0 980 183 0 c118 0 205 -5 248 -14z m859 -431 l0 -445 210 0 210 0 0 445
0 445 110 0 110 0 0 -980 0 -980 -110 0 -110 0 0 445 0 445 -210 0 -210 0 0
-445 0 -445 -110 0 -110 0 0 980 0 980 110 0 110 0 0 -445z"/>
<path d="M680 2440 l0 -352 89 4 c112 5 156 30 195 110 50 103 55 375 8 481
-11 24 -37 57 -57 73 -34 26 -46 29 -136 32 l-99 4 0 -352z"/>
<path d="M680 1565 l0 -375 95 0 c111 0 147 12 192 64 51 57 67 127 67 301 0
166 -15 240 -61 307 -39 58 -92 78 -201 78 l-92 0 0 -375z"/>
</g>
</svg>
